<svg xmlns="http://www.w3.org/2000/svg" width="20" height="20" viewBox="0 0 20 20">
  <path id="avatar" d="M15,5A10,10,0,1,0,25,15,10.011,10.011,0,0,0,15,5Zm4.211,17.891a8.916,8.916,0,0,1-8.421,0V18.684a2.1,2.1,0,0,1,1.1-1.839l2.737,2.737a.526.526,0,0,0,.744,0l2.737-2.737a2.1,2.1,0,0,1,1.1,1.839ZM15,15.526a3.158,3.158,0,1,1,3.158-3.158A3.162,3.162,0,0,1,15,15.526Zm1.887,1.053L15,18.466l-1.887-1.887Zm3.376,5.641V18.684a3.163,3.163,0,0,0-2.553-3.1,4.211,4.211,0,1,0-5.421,0,3.162,3.162,0,0,0-2.553,3.1v3.535a8.947,8.947,0,1,1,10.526,0Z" transform="translate(-5 -5)" fill="#ed5333"/>
</svg>
