<svg id="Animation_-_Social_Icon" data-name="Animation - Social Icon" xmlns="http://www.w3.org/2000/svg" width="25" height="25" viewBox="0 0 25 25">
  <rect id="Rectangle_1998" data-name="Rectangle 1998" width="25" height="25" rx="12.5" fill="#f0ede3"/>
  <rect id="Rectangle_2008" data-name="Rectangle 2008" width="3" height="3" rx="1.5" transform="translate(11 11)" fill="#ed5333" opacity="0"/>
  <path id="Path_26" data-name="Path 26" d="M1012.361,3918.425v-.9a1.965,1.965,0,0,1,.019-.315.612.612,0,0,1,.086-.219.351.351,0,0,1,.216-.149,1.551,1.551,0,0,1,.4-.041h.9V3915h-1.441a2.344,2.344,0,0,0-1.8.594,2.5,2.5,0,0,0-.546,1.75v1.086h-1.08v1.8h1.079v5.233h2.166v-5.233h1.442l.19-1.8Z" transform="translate(-999.116 -3907.731)" fill="#3f62a9"/>
</svg>
