<svg id="Group_18904" data-name="Group 18904" xmlns="http://www.w3.org/2000/svg" xmlns:xlink="http://www.w3.org/1999/xlink" width="25" height="25" viewBox="0 0 25 25">
  <defs>
    <linearGradient id="linear-gradient" x1="0.085" y1="0.901" x2="0.908" y2="0.104" gradientUnits="objectBoundingBox">
      <stop offset="0" stop-color="#774bdf"/>
      <stop offset="0.272" stop-color="#ea4167"/>
      <stop offset="0.64" stop-color="#ee525f"/>
      <stop offset="1" stop-color="#f2b243"/>
    </linearGradient>
  </defs>
  <rect id="Rectangle_1998" data-name="Rectangle 1998" width="25" height="25" rx="12.5" fill="#f0ede3"/>
  <g id="Group_13724" data-name="Group 13724" transform="translate(7 7)">
    <path id="Path_5912" data-name="Path 5912" d="M5.593,1.008c1.493,0,1.67.006,2.26.033a3.093,3.093,0,0,1,1.038.193,1.733,1.733,0,0,1,.643.418,1.733,1.733,0,0,1,.418.643,3.1,3.1,0,0,1,.193,1.038c.027.59.033.767.033,2.26s-.006,1.67-.033,2.26a3.1,3.1,0,0,1-.193,1.038A1.852,1.852,0,0,1,8.891,9.953a3.093,3.093,0,0,1-1.038.193c-.59.027-.767.033-2.26.033s-1.67-.006-2.26-.033a3.093,3.093,0,0,1-1.038-.193,1.733,1.733,0,0,1-.643-.418,1.733,1.733,0,0,1-.418-.643A3.093,3.093,0,0,1,1.04,7.853c-.027-.59-.033-.767-.033-2.26s.006-1.67.033-2.26a3.093,3.093,0,0,1,.193-1.038,1.733,1.733,0,0,1,.418-.643,1.733,1.733,0,0,1,.643-.418A3.093,3.093,0,0,1,3.333,1.04c.59-.027.767-.033,2.26-.033M5.593,0C4.074,0,3.883.006,3.287.034a4.106,4.106,0,0,0-1.358.26A2.741,2.741,0,0,0,.939.939a2.741,2.741,0,0,0-.645.991,4.106,4.106,0,0,0-.26,1.358C.006,3.883,0,4.074,0,5.593S.006,7.3.034,7.9a4.106,4.106,0,0,0,.26,1.358,2.741,2.741,0,0,0,.645.991,2.743,2.743,0,0,0,.991.645,4.106,4.106,0,0,0,1.358.26c.6.027.787.034,2.306.034S7.3,11.179,7.9,11.152a4.106,4.106,0,0,0,1.358-.26,2.86,2.86,0,0,0,1.636-1.636,4.106,4.106,0,0,0,.26-1.358c.027-.6.034-.787.034-2.306s-.006-1.709-.034-2.306a4.106,4.106,0,0,0-.26-1.358,2.743,2.743,0,0,0-.645-.991A2.741,2.741,0,0,0,9.256.294,4.106,4.106,0,0,0,7.9.034C7.3.006,7.112,0,5.593,0" fill="url(#linear-gradient)"/>
    <path id="Path_5913" data-name="Path 5913" d="M23.548,20.676a2.872,2.872,0,1,0,2.872,2.872,2.872,2.872,0,0,0-2.872-2.872m0,4.736a1.864,1.864,0,1,1,1.864-1.864,1.864,1.864,0,0,1-1.864,1.864" transform="translate(-17.955 -17.955)" fill="url(#linear-gradient)"/>
    <path id="Path_5914" data-name="Path 5914" d="M61.429,15.384a.671.671,0,1,1-.671-.671.671.671,0,0,1,.671.671" transform="translate(-52.18 -12.776)" fill="url(#linear-gradient)"/>
  </g>
</svg>
