<svg id="Group_18905" data-name="Group 18905" xmlns="http://www.w3.org/2000/svg" width="25" height="25" viewBox="0 0 25 25">
  <rect id="Rectangle_1998" data-name="Rectangle 1998" width="25" height="25" rx="12.5" fill="#f0ede3"/>
  <g id="Group_28" data-name="Group 28" transform="translate(7.801 7.756)">
    <path id="LinkedIn" d="M1096.5,3921.554v3.313h-1.942v-3.091c0-.776-.281-1.306-.984-1.306a1.061,1.061,0,0,0-1,.7,1.3,1.3,0,0,0-.065.469v3.226h-1.943s.026-5.234,0-5.777h1.943v.82l-.013.018h.013v-.018a1.932,1.932,0,0,1,1.751-.955C1095.539,3918.955,1096.5,3919.781,1096.5,3921.554Zm-7.964-5.249a1,1,0,1,0-.026,2h.013a1,1,0,1,0,.013-2Zm-.984,8.561h1.943v-5.777h-1.943Z" transform="translate(-1087.435 -3916.306)" fill="#0076b5"/>
  </g>
</svg>
