<svg xmlns="http://www.w3.org/2000/svg" width="25" height="25" viewBox="0 0 25 25">
  <g id="Group_19013" data-name="Group 19013" transform="translate(-2779 -8130)">
    <rect id="Rectangle_5396" data-name="Rectangle 5396" width="25" height="25" rx="12.5" transform="translate(2779 8130)" fill="#f0ede3"/>
    <g id="Group_19012" data-name="Group 19012" transform="translate(2786.515 8138.71)">
      <path id="Path_29" data-name="Path 29" d="M1176.069,3919.422c-.36-.425-1.025-.6-2.294-.6h-4.606c-1.3,0-1.974.185-2.333.638a3.24,3.24,0,0,0-.349,1.993v1.717c0,1.745.415,2.631,2.682,2.631h4.606a2.913,2.913,0,0,0,2.1-.529,2.759,2.759,0,0,0,.577-2.1v-1.717A3.158,3.158,0,0,0,1176.069,3919.422Zm-3.181,3.128-2.092,1.087a.322.322,0,0,1-.47-.284v-2.168a.32.32,0,0,1,.154-.273.325.325,0,0,1,.315-.011l2.092,1.081a.319.319,0,0,1,0,.568Z" transform="translate(-1166.487 -3918.823)" fill="red"/>
    </g>
  </g>
</svg>
